<?xml version="1.0" encoding="UTF-8"?><svg id="Layer_2" xmlns="http://www.w3.org/2000/svg" viewBox="0 0 289.39 310.17"><defs><style>.cls-1{fill:#f3ded9;}</style></defs><g id="Layer_1-2"><path class="cls-1" d="M247.75,68.69C238.47,27.31,205.95,0,155.09,0,68.18,0-2.04,71.49,.05,158.88c1.97,82.61,69.59,149.79,152.2,151.27,16.93,.3,40.22-2.31,64.27-12.43v-63.29c-17.36,9.71-37.41,15.25-58.73,15.25-.23,0-.46-.02-.7-.02-.47,0-.96,.03-1.42,.03-64.04,0-115.96-50.32-115.96-116.71C39.71,54.57,115.93-6.74,192.49,18.43c23.75,7.81,37.14,25.62,43,46.87-22.1-6.26-36.21-6.31-48.55-5.1-91.99,9-110.87,114.39-54.31,142.29,25.85,12.75,49.45,7.28,66.85-2.46,21.56-12.06,35.74-33.32,43.08-56.9,2.63-8.46,4.56-20.71,5.87-28.74v93.88h40.94V58.95c-12.7,8.11-30.13,11.88-41.64,9.73Zm-8.87,32.45c-4.67,79.44-80.1,83.12-96.78,46.01-15.35-34.16,21.79-96.43,88.38-73.52,4.53,1.56,7.84,5.58,8.23,10.36,.46,5.65,.5,11.4,.17,17.15Z"/></g></svg>